<mxfile host="65bd71144e">
    <diagram id="cj8oMoM2G6EClZG2thuI" name="Page-1">
        <mxGraphModel dx="3036" dy="1214" grid="1" gridSize="10" guides="1" tooltips="1" connect="1" arrows="1" fold="1" page="1" pageScale="1" pageWidth="3000" pageHeight="2500" math="0" shadow="0">
            <root>
                <mxCell id="0"/>
                <mxCell id="1" parent="0"/>
                <mxCell id="4" value="j" style="rounded=0;whiteSpace=wrap;html=1;fontSize=18;movable=1;resizable=1;rotatable=1;deletable=1;editable=1;connectable=1;" parent="1" vertex="1">
                    <mxGeometry x="430" y="620" width="2430" height="980" as="geometry"/>
                </mxCell>
                <mxCell id="3" value="&lt;font style=&quot;font-size: 24px;&quot;&gt;Base Environment&lt;/font&gt;" style="text;html=1;strokeColor=none;fillColor=none;align=center;verticalAlign=middle;whiteSpace=wrap;rounded=0;strokeWidth=3;" parent="1" vertex="1">
                    <mxGeometry x="560" y="640" width="380" height="90" as="geometry"/>
                </mxCell>
                <mxCell id="xEnk3_c0OevR_0V_Mn8B-4" value="" style="group;strokeWidth=3;" parent="1" vertex="1" connectable="0">
                    <mxGeometry x="1800" y="825" width="630" height="430" as="geometry"/>
                </mxCell>
                <mxCell id="xEnk3_c0OevR_0V_Mn8B-5" value="" style="rounded=1;whiteSpace=wrap;html=1;fontSize=18;strokeWidth=3;" parent="xEnk3_c0OevR_0V_Mn8B-4" vertex="1">
                    <mxGeometry x="-30" width="660" height="430" as="geometry"/>
                </mxCell>
                <mxCell id="xEnk3_c0OevR_0V_Mn8B-6" value="" style="rounded=1;whiteSpace=wrap;html=1;fontSize=18;strokeWidth=3;" parent="xEnk3_c0OevR_0V_Mn8B-4" vertex="1">
                    <mxGeometry x="20" y="50" width="370" height="330" as="geometry"/>
                </mxCell>
                <mxCell id="xEnk3_c0OevR_0V_Mn8B-7" value="s_mon" style="rounded=1;whiteSpace=wrap;html=1;fontSize=18;strokeWidth=3;" parent="xEnk3_c0OevR_0V_Mn8B-4" vertex="1">
                    <mxGeometry x="60" y="130" width="120" height="60" as="geometry"/>
                </mxCell>
                <mxCell id="xEnk3_c0OevR_0V_Mn8B-8" value="s_driver" style="rounded=1;whiteSpace=wrap;html=1;fontSize=18;strokeWidth=3;" parent="xEnk3_c0OevR_0V_Mn8B-4" vertex="1">
                    <mxGeometry x="60" y="230" width="120" height="60" as="geometry"/>
                </mxCell>
                <mxCell id="xEnk3_c0OevR_0V_Mn8B-9" value="s_sequencer" style="rounded=1;whiteSpace=wrap;html=1;fontSize=18;strokeWidth=3;" parent="xEnk3_c0OevR_0V_Mn8B-4" vertex="1">
                    <mxGeometry x="240" y="230" width="120" height="60" as="geometry"/>
                </mxCell>
                <mxCell id="xEnk3_c0OevR_0V_Mn8B-10" value="Scoreboard" style="rounded=1;whiteSpace=wrap;html=1;fontSize=18;strokeWidth=3;" parent="xEnk3_c0OevR_0V_Mn8B-4" vertex="1">
                    <mxGeometry x="445" y="90" width="150" height="80" as="geometry"/>
                </mxCell>
                <mxCell id="xEnk3_c0OevR_0V_Mn8B-13" value="s_agent" style="text;html=1;strokeColor=none;fillColor=none;align=center;verticalAlign=middle;whiteSpace=wrap;rounded=0;fontSize=24;strokeWidth=3;" parent="xEnk3_c0OevR_0V_Mn8B-4" vertex="1">
                    <mxGeometry x="60" y="80" width="60" height="30" as="geometry"/>
                </mxCell>
                <mxCell id="4D88k0cPvyVBK7HV8ayJ-6" value="s_sequence" style="rounded=1;whiteSpace=wrap;html=1;fontSize=18;strokeWidth=3;" parent="xEnk3_c0OevR_0V_Mn8B-4" vertex="1">
                    <mxGeometry x="440" y="210" width="160" height="100" as="geometry"/>
                </mxCell>
                <mxCell id="xEnk3_c0OevR_0V_Mn8B-31" value="s_env" style="text;html=1;strokeColor=none;fillColor=none;align=center;verticalAlign=middle;whiteSpace=wrap;rounded=0;fontSize=24;strokeWidth=3;" parent="xEnk3_c0OevR_0V_Mn8B-4" vertex="1">
                    <mxGeometry x="50" y="10" width="60" height="30" as="geometry"/>
                </mxCell>
                <mxCell id="4D88k0cPvyVBK7HV8ayJ-7" value="" style="endArrow=classic;startArrow=classic;html=1;entryX=0;entryY=0.5;entryDx=0;entryDy=0;exitX=1;exitY=0.5;exitDx=0;exitDy=0;strokeWidth=3;" parent="xEnk3_c0OevR_0V_Mn8B-4" source="xEnk3_c0OevR_0V_Mn8B-8" target="xEnk3_c0OevR_0V_Mn8B-9" edge="1">
                    <mxGeometry width="50" height="50" relative="1" as="geometry">
                        <mxPoint x="240" y="220" as="sourcePoint"/>
                        <mxPoint x="290" y="170" as="targetPoint"/>
                    </mxGeometry>
                </mxCell>
                <mxCell id="4D88k0cPvyVBK7HV8ayJ-8" value="" style="endArrow=classic;startArrow=classic;html=1;entryX=0;entryY=0.5;entryDx=0;entryDy=0;exitX=1;exitY=0.5;exitDx=0;exitDy=0;strokeWidth=3;" parent="xEnk3_c0OevR_0V_Mn8B-4" source="xEnk3_c0OevR_0V_Mn8B-9" target="4D88k0cPvyVBK7HV8ayJ-6" edge="1">
                    <mxGeometry width="50" height="50" relative="1" as="geometry">
                        <mxPoint x="240" y="220" as="sourcePoint"/>
                        <mxPoint x="290" y="170" as="targetPoint"/>
                    </mxGeometry>
                </mxCell>
                <mxCell id="xEnk3_c0OevR_0V_Mn8B-47" value="" style="group" parent="1" vertex="1" connectable="0">
                    <mxGeometry x="590" y="820" width="920" height="440" as="geometry"/>
                </mxCell>
                <mxCell id="xEnk3_c0OevR_0V_Mn8B-11" value="" style="group;strokeWidth=3;" parent="xEnk3_c0OevR_0V_Mn8B-47" vertex="1" connectable="0">
                    <mxGeometry x="10" y="20" width="620" height="380" as="geometry"/>
                </mxCell>
                <mxCell id="4D88k0cPvyVBK7HV8ayJ-11" value="" style="endArrow=classic;startArrow=classic;html=1;entryX=0;entryY=0.5;entryDx=0;entryDy=0;exitX=1;exitY=0.5;exitDx=0;exitDy=0;" parent="xEnk3_c0OevR_0V_Mn8B-11" edge="1">
                    <mxGeometry width="50" height="50" relative="1" as="geometry">
                        <mxPoint x="430" y="240" as="sourcePoint"/>
                        <mxPoint x="459.9985714285717" y="270" as="targetPoint"/>
                    </mxGeometry>
                </mxCell>
                <mxCell id="xEnk3_c0OevR_0V_Mn8B-34" value="" style="group;strokeWidth=3;" parent="xEnk3_c0OevR_0V_Mn8B-47" vertex="1" connectable="0">
                    <mxGeometry width="920" height="440" as="geometry"/>
                </mxCell>
                <mxCell id="xEnk3_c0OevR_0V_Mn8B-35" value="" style="rounded=1;whiteSpace=wrap;html=1;fontSize=18;strokeWidth=3;" parent="xEnk3_c0OevR_0V_Mn8B-34" vertex="1">
                    <mxGeometry x="-30" width="660" height="430" as="geometry"/>
                </mxCell>
                <mxCell id="xEnk3_c0OevR_0V_Mn8B-36" value="" style="rounded=1;whiteSpace=wrap;html=1;fontSize=18;strokeWidth=3;" parent="xEnk3_c0OevR_0V_Mn8B-34" vertex="1">
                    <mxGeometry x="230" y="50" width="370" height="330" as="geometry"/>
                </mxCell>
                <mxCell id="xEnk3_c0OevR_0V_Mn8B-37" value="m_mon" style="rounded=1;whiteSpace=wrap;html=1;fontSize=18;strokeWidth=3;" parent="xEnk3_c0OevR_0V_Mn8B-34" vertex="1">
                    <mxGeometry x="460" y="130" width="120" height="60" as="geometry"/>
                </mxCell>
                <mxCell id="xEnk3_c0OevR_0V_Mn8B-38" value="m_driver" style="rounded=1;whiteSpace=wrap;html=1;fontSize=18;strokeWidth=3;" parent="xEnk3_c0OevR_0V_Mn8B-34" vertex="1">
                    <mxGeometry x="460" y="220" width="120" height="60" as="geometry"/>
                </mxCell>
                <mxCell id="xEnk3_c0OevR_0V_Mn8B-41" value="m_agent" style="text;html=1;strokeColor=none;fillColor=none;align=center;verticalAlign=middle;whiteSpace=wrap;rounded=0;fontSize=24;strokeWidth=3;" parent="xEnk3_c0OevR_0V_Mn8B-34" vertex="1">
                    <mxGeometry x="490" y="70" width="60" height="30" as="geometry"/>
                </mxCell>
                <mxCell id="xEnk3_c0OevR_0V_Mn8B-43" value="m_env" style="text;html=1;strokeColor=none;fillColor=none;align=center;verticalAlign=middle;whiteSpace=wrap;rounded=0;fontSize=24;strokeWidth=3;" parent="xEnk3_c0OevR_0V_Mn8B-34" vertex="1">
                    <mxGeometry x="50" y="10" width="60" height="30" as="geometry"/>
                </mxCell>
                <mxCell id="4D88k0cPvyVBK7HV8ayJ-17" style="edgeStyle=none;html=1;exitX=1;exitY=0.5;exitDx=0;exitDy=0;entryX=0;entryY=0.5;entryDx=0;entryDy=0;startArrow=classic;startFill=1;strokeWidth=3;" parent="xEnk3_c0OevR_0V_Mn8B-34" source="xEnk3_c0OevR_0V_Mn8B-39" target="xEnk3_c0OevR_0V_Mn8B-38" edge="1">
                    <mxGeometry relative="1" as="geometry"/>
                </mxCell>
                <mxCell id="xEnk3_c0OevR_0V_Mn8B-39" value="m_sequencer" style="rounded=1;whiteSpace=wrap;html=1;fontSize=18;strokeWidth=3;" parent="xEnk3_c0OevR_0V_Mn8B-34" vertex="1">
                    <mxGeometry x="270" y="220" width="120" height="60" as="geometry"/>
                </mxCell>
                <mxCell id="xEnk3_c0OevR_0V_Mn8B-42" value="m_sequence" style="rounded=1;whiteSpace=wrap;html=1;fontSize=18;strokeWidth=3;" parent="xEnk3_c0OevR_0V_Mn8B-34" vertex="1">
                    <mxGeometry x="10" y="200" width="160" height="100" as="geometry"/>
                </mxCell>
                <mxCell id="xEnk3_c0OevR_0V_Mn8B-40" value="Scoreboard" style="rounded=1;whiteSpace=wrap;html=1;fontSize=18;strokeWidth=3;" parent="xEnk3_c0OevR_0V_Mn8B-34" vertex="1">
                    <mxGeometry x="10" y="70" width="150" height="80" as="geometry"/>
                </mxCell>
                <mxCell id="4D88k0cPvyVBK7HV8ayJ-16" value="" style="endArrow=classic;startArrow=classic;html=1;entryX=0;entryY=0.5;entryDx=0;entryDy=0;exitX=1;exitY=0.5;exitDx=0;exitDy=0;strokeWidth=3;" parent="xEnk3_c0OevR_0V_Mn8B-34" source="xEnk3_c0OevR_0V_Mn8B-42" target="xEnk3_c0OevR_0V_Mn8B-39" edge="1">
                    <mxGeometry width="50" height="50" relative="1" as="geometry">
                        <mxPoint x="650" y="150" as="sourcePoint"/>
                        <mxPoint x="700" y="100" as="targetPoint"/>
                    </mxGeometry>
                </mxCell>
                <mxCell id="xEnk3_c0OevR_0V_Mn8B-51" value="Virtual Interface" style="rounded=0;whiteSpace=wrap;html=1;points=[[0,0,0,0,0],[0,0.09,0,0,0],[0,0.18,0,0,0],[0,0.25,0,0,0],[0,0.27,0,0,0],[0,0.36,0,0,0],[0,0.45,0,0,0],[0,0.5,0,0,0],[0,0.55,0,0,0],[0,0.64,0,0,0],[0,0.73,0,0,0],[0,0.75,0,0,0],[0,0.82,0,0,0],[0,0.91,0,0,0],[0,1,0,0,0],[0.24,0,0,0,0],[0.24,1,0,0,0],[0.5,0,0,0,0],[0.5,1,0,0,0],[0.74,0,0,0,0],[0.76,1,0,0,0],[1,0,0,0,0],[1,0.09,0,0,0],[1,0.18,0,0,0],[1,0.25,0,0,0],[1,0.27,0,0,0],[1,0.36,0,0,0],[1,0.45,0,0,0],[1,0.5,0,0,0],[1,0.55,0,0,0],[1,0.64,0,0,0],[1,0.73,0,0,0],[1,0.75,0,0,0],[1,0.82,0,0,0],[1,0.91,0,0,0],[1,1,0,0,0]];" parent="xEnk3_c0OevR_0V_Mn8B-34" vertex="1">
                    <mxGeometry x="830" width="90" height="440" as="geometry"/>
                </mxCell>
                <mxCell id="4D88k0cPvyVBK7HV8ayJ-20" style="edgeStyle=none;html=1;exitX=0;exitY=0.36;exitDx=0;exitDy=0;exitPerimeter=0;entryX=1;entryY=0.5;entryDx=0;entryDy=0;strokeWidth=3;startArrow=none;startFill=0;endArrow=classic;endFill=1;" parent="1" source="4D88k0cPvyVBK7HV8ayJ-18" target="xEnk3_c0OevR_0V_Mn8B-37" edge="1">
                    <mxGeometry relative="1" as="geometry"/>
                </mxCell>
                <mxCell id="4D88k0cPvyVBK7HV8ayJ-18" value="&lt;font style=&quot;font-size: 16px;&quot;&gt;Virtual&lt;br&gt;&amp;nbsp;Interface&lt;/font&gt;" style="rounded=0;whiteSpace=wrap;html=1;points=[[0,0,0,0,0],[0,0.09,0,0,0],[0,0.18,0,0,0],[0,0.25,0,0,0],[0,0.27,0,0,0],[0,0.36,0,0,0],[0,0.45,0,0,0],[0,0.5,0,0,0],[0,0.55,0,0,0],[0,0.64,0,0,0],[0,0.73,0,0,0],[0,0.75,0,0,0],[0,0.82,0,0,0],[0,0.91,0,0,0],[0,1,0,0,0],[0.24,0,0,0,0],[0.24,1,0,0,0],[0.5,0,0,0,0],[0.5,1,0,0,0],[0.74,0,0,0,0],[0.76,1,0,0,0],[1,0,0,0,0],[1,0.09,0,0,0],[1,0.18,0,0,0],[1,0.25,0,0,0],[1,0.27,0,0,0],[1,0.36,0,0,0],[1,0.45,0,0,0],[1,0.5,0,0,0],[1,0.55,0,0,0],[1,0.64,0,0,0],[1,0.73,0,0,0],[1,0.75,0,0,0],[1,0.82,0,0,0],[1,0.91,0,0,0],[1,1,0,0,0]];strokeWidth=3;" parent="1" vertex="1">
                    <mxGeometry x="1390" y="820" width="120" height="440" as="geometry"/>
                </mxCell>
                <mxCell id="4D88k0cPvyVBK7HV8ayJ-25" style="edgeStyle=none;html=1;exitX=1;exitY=0.5;exitDx=0;exitDy=0;strokeWidth=3;startArrow=classic;startFill=1;endArrow=classic;endFill=1;entryX=-0.015;entryY=0.571;entryDx=0;entryDy=0;entryPerimeter=0;" parent="1" source="xEnk3_c0OevR_0V_Mn8B-38" target="4D88k0cPvyVBK7HV8ayJ-18" edge="1">
                    <mxGeometry relative="1" as="geometry">
                        <mxPoint x="1420" y="1070" as="targetPoint"/>
                    </mxGeometry>
                </mxCell>
                <mxCell id="xEnk3_c0OevR_0V_Mn8B-50" style="edgeStyle=none;html=1;entryX=0;entryY=0.5;entryDx=0;entryDy=0;strokeWidth=3;fontSize=24;" parent="1" target="xEnk3_c0OevR_0V_Mn8B-7" edge="1">
                    <mxGeometry relative="1" as="geometry">
                        <mxPoint x="1510" y="985" as="sourcePoint"/>
                    </mxGeometry>
                </mxCell>
                <mxCell id="4D88k0cPvyVBK7HV8ayJ-26" style="edgeStyle=none;html=1;exitX=0;exitY=0.5;exitDx=0;exitDy=0;strokeWidth=3;startArrow=classic;startFill=1;endArrow=classic;endFill=1;" parent="1" source="xEnk3_c0OevR_0V_Mn8B-8" edge="1">
                    <mxGeometry relative="1" as="geometry">
                        <mxPoint x="1510" y="1090" as="targetPoint"/>
                    </mxGeometry>
                </mxCell>
                <mxCell id="5" value="&lt;font style=&quot;font-size: 24px;&quot;&gt;DUT&lt;/font&gt;" style="rounded=1;whiteSpace=wrap;html=1;strokeWidth=3;" parent="1" vertex="1">
                    <mxGeometry x="1300" y="1260" width="300" height="170" as="geometry"/>
                </mxCell>
            </root>
        </mxGraphModel>
    </diagram>
    <diagram id="W7YpPgS2Q6wSByC898EW" name="Page-2">
        <mxGraphModel dx="1366" dy="973" grid="1" gridSize="10" guides="1" tooltips="1" connect="1" arrows="1" fold="1" page="1" pageScale="1" pageWidth="1200" pageHeight="500" math="0" shadow="0">
            <root>
                <mxCell id="0"/>
                <mxCell id="1" parent="0"/>
                <mxCell id="opAI8aMLAGLAGZVWq1MP-1" value="" style="group" parent="1" vertex="1" connectable="0">
                    <mxGeometry x="240" y="80" width="560" height="380" as="geometry"/>
                </mxCell>
                <mxCell id="5HbnctC6cJ77-Px2dt4V-1" value="" style="rounded=1;whiteSpace=wrap;html=1;fontSize=18;" parent="opAI8aMLAGLAGZVWq1MP-1" vertex="1">
                    <mxGeometry width="560" height="380" as="geometry"/>
                </mxCell>
                <mxCell id="5HbnctC6cJ77-Px2dt4V-7" value="" style="rounded=1;whiteSpace=wrap;html=1;fontSize=18;" parent="opAI8aMLAGLAGZVWq1MP-1" vertex="1">
                    <mxGeometry x="40" y="50" width="310" height="290" as="geometry"/>
                </mxCell>
                <mxCell id="5HbnctC6cJ77-Px2dt4V-2" value="Monitor" style="rounded=1;whiteSpace=wrap;html=1;fontSize=18;" parent="opAI8aMLAGLAGZVWq1MP-1" vertex="1">
                    <mxGeometry x="60" y="130" width="120" height="60" as="geometry"/>
                </mxCell>
                <mxCell id="5HbnctC6cJ77-Px2dt4V-3" value="Driver" style="rounded=1;whiteSpace=wrap;html=1;fontSize=18;" parent="opAI8aMLAGLAGZVWq1MP-1" vertex="1">
                    <mxGeometry x="50" y="230" width="120" height="60" as="geometry"/>
                </mxCell>
                <mxCell id="5HbnctC6cJ77-Px2dt4V-4" value="Sequencer" style="rounded=1;whiteSpace=wrap;html=1;fontSize=18;" parent="opAI8aMLAGLAGZVWq1MP-1" vertex="1">
                    <mxGeometry x="210" y="230" width="120" height="60" as="geometry"/>
                </mxCell>
                <mxCell id="5HbnctC6cJ77-Px2dt4V-5" value="Scoreboard" style="rounded=1;whiteSpace=wrap;html=1;fontSize=18;" parent="opAI8aMLAGLAGZVWq1MP-1" vertex="1">
                    <mxGeometry x="380" y="230" width="120" height="60" as="geometry"/>
                </mxCell>
            </root>
        </mxGraphModel>
    </diagram>
</mxfile>